# xmcd
#
# Track frame offsets:
#	150
#	21355
#	39575
#	54465
#	73980
#	97036
#	106973
#	120380
#	136857
#
# Disc length: 2067 seconds
#
# Revision: 1
# Processed by: cddbd v1.5.2PL0 Copyright (c) Steve Scherf et al.
# Submitted via: audiograbber 1.83.01
#
DISCID=7b081109
DTITLE=Paul-Simpson-Project - A Hunger For Life
DYEAR=2009
DGENRE=Blues
TTITLE0=Bird On Breeze
TTITLE1=What Does It Cost
TTITLE2=Swing Low
TTITLE3=Creeping Under My Skin
TTITLE4=Impressions Of The Sea
TTITLE5=Noah's Song
TTITLE6=A Hunger For Life
TTITLE7=Sebastian
TTITLE8=Show Me The Way
EXTD=
EXTT0=
EXTT1=
EXTT2=
EXTT3=
EXTT4=
EXTT5=
EXTT6=
EXTT7=
EXTT8=
PLAYORDER=
